HIERARCHY
ROOT Hips
{
	OFFSET 0.000000 0.000000 0.000000
	CHANNELS 6 Xposition Yposition Zposition Zrotation Yrotation Xrotation 
	JOINT LeftUpLeg_virtual
	{
		OFFSET 0.000000 0.000000 0.000000
		CHANNELS 3 Zrotation Yrotation Xrotation
		JOINT LeftUpLeg
		{
			OFFSET 8.479694 -4.795517 -0.379053
			CHANNELS 3 Zrotation Yrotation Xrotation
			JOINT LeftLeg
			{
				OFFSET 0.485052 -32.551468 0.112863
				CHANNELS 3 Zrotation Yrotation Xrotation
				JOINT LeftFoot
				{
					OFFSET 0.438033 -32.635670 -3.012641
					CHANNELS 3 Zrotation Yrotation Xrotation
					JOINT LeftToeBase
					{
						OFFSET 0.970169 -13.225353 11.864223
						CHANNELS 3 Zrotation Yrotation Xrotation
						End Site
						{
							OFFSET 0.000000 0.000000 0.000000
						}
					}
				}
			}
		}
	}
	JOINT RightUpLeg_virtual
	{
		OFFSET 0.000000 0.000000 0.000000
		CHANNELS 3 Zrotation Yrotation Xrotation
		JOINT RightUpLeg
		{
			OFFSET -8.479694 -4.795517 -0.379053
			CHANNELS 3 Zrotation Yrotation Xrotation
			JOINT RightLeg
			{
				OFFSET -0.484100 -32.551483 0.112903
				CHANNELS 3 Zrotation Yrotation Xrotation
				JOINT RightFoot
				{
					OFFSET -0.438985 -32.635651 -3.012681
					CHANNELS 3 Zrotation Yrotation Xrotation
					JOINT RightToeBase
					{
						OFFSET -0.970169 -13.225354 11.864223
						CHANNELS 3 Zrotation Yrotation Xrotation
						End Site
						{
							OFFSET 0.000000 0.000000 0.000000
						}
					}
				}
			}
		}
	}
	JOINT Spine_virtual
	{
		OFFSET 0.000000 0.000000 0.000000
		CHANNELS 3 Zrotation Yrotation Xrotation
		JOINT Spine
		{
			OFFSET 0.000000 7.722015 1.166203
			CHANNELS 3 Zrotation Yrotation Xrotation
			JOINT Spine1
			{
				OFFSET 0.000000 12.024086 0.248766
				CHANNELS 3 Zrotation Yrotation Xrotation
				JOINT Spine2
				{
					OFFSET -0.000000 11.503036 -0.491240
					CHANNELS 3 Zrotation Yrotation Xrotation
					JOINT Neck_virtual
					{
						OFFSET 0.000000 0.000000 0.000000
						CHANNELS 3 Zrotation Yrotation Xrotation
						JOINT Neck
						{
							OFFSET 0.000000 18.430687 -3.123054
							CHANNELS 3 Zrotation Yrotation Xrotation
							JOINT Head
							{
								OFFSET -0.000000 9.051071 1.034021
								CHANNELS 3 Zrotation Yrotation Xrotation
								End Site
								{
									OFFSET 0.000000 0.000000 0.000000
								}
							}
						}
					}
					JOINT LeftShoulder_virtual
					{
						OFFSET 0.000000 0.000000 0.000000
						CHANNELS 3 Zrotation Yrotation Xrotation
						JOINT LeftShoulder
						{
							OFFSET 6.197824 13.665230 -4.064723
							CHANNELS 3 Zrotation Yrotation Xrotation
							JOINT LeftArm
							{
								OFFSET 7.778132 -0.187073 -1.709282
								CHANNELS 3 Zrotation Yrotation Xrotation
								JOINT LeftForeArm
								{
									OFFSET 21.954697 0.000000 -2.041093
									CHANNELS 3 Zrotation Yrotation Xrotation
									JOINT LeftHand
									{
										OFFSET 22.992908 0.000000 -0.870901
										CHANNELS 3 Zrotation Yrotation Xrotation
										End Site
										{
											OFFSET 0.000000 0.000000 0.000000
										}
									}
								}
							}
						}
					}
					JOINT RightShoulder_virtual
					{
						OFFSET 0.000000 0.000000 0.000000
						CHANNELS 3 Zrotation Yrotation Xrotation
						JOINT RightShoulder
						{
							OFFSET -6.197824 13.665230 -4.064723
							CHANNELS 3 Zrotation Yrotation Xrotation
							JOINT RightArm
							{
								OFFSET -7.778132 -0.187073 -1.709282
								CHANNELS 3 Zrotation Yrotation Xrotation
								JOINT RightForeArm
								{
									OFFSET -21.954697 0.000000 -2.041093
									CHANNELS 3 Zrotation Yrotation Xrotation
									JOINT RightHand
									{
										OFFSET -22.992908 0.000000 -0.870901
										CHANNELS 3 Zrotation Yrotation Xrotation
										End Site
										{
											OFFSET 0.000000 0.000000 0.000000
										}
									}
								}
							}
						}
					}
				}
			}
		}
	}
}
MOTION
Frames: 9
Frame Time: 0.033333
-55.011616 82.231827 -87.824089 -179.805604 51.736818 179.617310 -5.320220 3.353160 12.147976 -3.231992 9.854286 -32.724519 11.461039 4.740294 26.282177 -9.555597 -5.843523 -4.700256 0.000000 0.000000 0.000000 -0.187881 2.709221 13.435779 -4.450301 -8.019209 -31.106215 -1.792880 5.743460 27.586622 15.992285 7.994052 4.929518 0.000000 0.000000 0.000000 1.870139 6.584303 1.914316 -0.710956 -2.471072 -5.556080 -0.752652 -2.426373 14.362068 0.012125 -0.098236 -0.054011 -1.133030 -0.714086 17.443808 3.802084 -8.890628 -2.709841 0.000000 0.000000 0.000000 0.518085 -0.056287 13.762221 -9.614403 -13.982415 10.978026 -60.667086 -16.895395 1.746725 13.008731 -17.226263 10.481528 0.000000 0.000000 0.000000 -4.248762 1.956925 13.274690 15.265271 -5.167102 2.070753 68.332887 -2.229641 14.121949 -4.561445 28.593737 -4.391409 0.000000 0.000000 0.000000 
-54.889931 82.217491 -87.855339 -179.907032 54.340466 179.592857 -5.399753 3.798426 12.000203 -3.056908 11.186300 -32.648058 11.507118 5.871690 26.587526 -9.650831 -6.052249 -4.937741 0.000000 0.000000 0.000000 -0.528489 3.244407 13.369558 -4.171141 -10.184920 -29.852182 -1.521769 5.697220 29.094905 15.557414 7.974763 3.547349 0.000000 0.000000 0.000000 1.492471 7.059047 1.346116 -0.638923 -3.025555 -6.028037 -0.704290 -2.357596 14.539557 0.003230 -0.104809 -0.009154 -1.075118 -0.531454 17.609920 3.394362 -8.806159 -2.441065 0.000000 0.000000 0.000000 0.596005 0.037771 13.792312 -9.822388 -13.716521 10.364779 -59.288494 -18.388613 0.701627 12.733638 -15.471258 10.253569 0.000000 0.000000 0.000000 -4.128326 2.080185 13.169345 16.410107 -5.455229 1.432803 65.868145 -1.156446 11.773061 -4.484322 28.959725 -4.294923 0.000000 0.000000 0.000000 
-54.731079 82.195938 -87.898575 179.937782 56.664004 179.491620 -5.411611 4.121482 11.943106 -2.994318 12.279801 -32.554953 11.696389 6.893893 26.977130 -9.621808 -6.398599 -5.252737 0.000000 0.000000 0.000000 -0.773558 3.345617 13.346666 -4.191790 -12.436612 -28.767213 -1.202709 5.881230 30.195597 15.200458 7.813182 2.542859 0.000000 0.000000 0.000000 1.160360 7.303154 0.807656 -0.634974 -3.538184 -6.647007 -0.637559 -2.245242 14.577710 -0.017487 -0.122372 -0.039174 -0.990592 -0.420955 17.767559 3.005231 -8.896807 -2.209289 0.000000 0.000000 0.000000 0.723613 0.063715 13.844716 -10.170895 -13.266724 9.701379 -57.976975 -19.689385 -0.491108 12.465005 -14.809252 10.161742 0.000000 0.000000 0.000000 -3.943323 2.192581 13.415511 17.634806 -5.486009 0.865932 63.413771 0.425097 9.507123 -4.310317 29.384235 -4.223687 0.000000 0.000000 0.000000 
-54.471699 82.198227 -87.850716 -179.939517 59.208615 179.573747 -5.452027 4.344116 11.972809 -2.773661 13.489015 -32.431589 11.935479 7.474994 27.337229 -9.278021 -6.715821 -5.709163 0.000000 0.000000 0.000000 -0.942849 3.511980 13.346866 -4.301853 -14.401024 -27.761785 -1.183650 5.537299 30.984170 14.129542 6.655798 2.806188 0.000000 0.000000 0.000000 0.948913 7.558628 0.329464 -0.651493 -3.883151 -7.320156 -0.526220 -2.265661 14.659562 0.034190 -0.157618 -0.081168 -0.969374 -0.335170 17.927003 2.684806 -8.720751 -1.946065 0.000000 0.000000 0.000000 0.773996 0.192960 14.055252 -10.506045 -12.844039 9.116211 -56.712249 -21.006170 -1.410733 12.104290 -15.350599 9.861431 0.000000 0.000000 0.000000 -3.801435 2.174499 13.540436 18.682792 -5.357906 0.373282 61.113008 2.278520 7.993478 -3.927982 30.255959 -4.331097 0.000000 0.000000 0.000000 
-54.123768 82.214348 -87.561653 179.888509 61.781657 179.348583 -5.539303 4.455862 12.083471 -2.496845 14.521194 -32.268491 12.221129 7.765885 27.569529 -8.776650 -6.989538 -6.105466 0.000000 0.000000 0.000000 -0.958326 3.565727 13.253915 -4.435126 -16.869179 -26.768700 -2.016350 4.512158 31.387622 12.026583 4.372184 3.706854 0.000000 0.000000 0.000000 0.739568 7.595660 0.042769 -0.769217 -4.240250 -8.032560 -0.416895 -2.247875 14.652105 0.009906 -0.122279 -0.089554 -0.758807 -0.289084 17.962494 2.468840 -8.428779 -1.689399 0.000000 0.000000 0.000000 1.021661 0.264581 14.178542 -10.724184 -12.282711 8.474877 -55.699834 -21.892047 -2.115685 11.664238 -17.222821 9.780147 0.000000 0.000000 0.000000 -3.574607 2.309800 13.676632 19.513873 -5.148746 0.069893 59.188637 4.221285 7.306654 -3.626507 31.767685 -4.526046 0.000000 0.000000 0.000000 
-53.696026 82.249016 -86.972839 179.880122 64.435649 179.292548 -5.506383 4.610753 12.176540 -2.030782 15.554661 -32.090657 12.437763 7.738807 27.603759 -8.357945 -7.273041 -6.305630 0.000000 0.000000 0.000000 -0.896533 3.465291 13.202774 -4.540128 -18.978963 -25.791237 -2.702191 3.839372 30.954807 10.994321 3.225737 3.492922 0.000000 0.000000 0.000000 0.640136 7.505827 -0.265265 -0.842116 -4.466093 -8.752741 -0.248178 -2.212327 14.867742 -0.035746 -0.074601 -0.075638 -0.478005 -0.295642 17.993355 2.351615 -8.012081 -1.368285 0.000000 0.000000 0.000000 1.327124 0.251961 14.179151 -10.802748 -11.715785 7.837027 -54.603862 -22.484520 -2.679649 11.104487 -20.099753 9.783878 0.000000 0.000000 0.000000 -3.407469 2.324625 13.636427 19.987686 -4.930288 -0.092063 57.761243 6.173620 7.404239 -3.222798 33.912572 -4.659361 0.000000 0.000000 0.000000 
-53.151005 82.296509 -86.123177 179.908754 67.044297 179.387064 -5.353416 4.334257 12.350053 -1.467723 16.667847 -31.879027 12.572033 7.593558 27.421787 -8.148214 -7.432604 -6.323104 0.000000 0.000000 0.000000 -0.860269 3.422650 13.068747 -4.581946 -20.321824 -24.766737 -2.854971 3.556645 29.985575 10.833351 3.119548 1.997473 0.000000 0.000000 0.000000 0.605402 7.446963 -0.399863 -0.877633 -4.698243 -9.489234 -0.067095 -2.273874 14.933240 -0.045646 -0.069459 -0.045670 -0.263380 -0.324437 17.969744 2.361054 -7.476398 -1.081259 0.000000 0.000000 0.000000 1.525281 0.327850 14.215261 -10.678132 -11.173513 7.279162 -53.552399 -22.882146 -3.060457 10.639387 -23.411754 9.791786 0.000000 0.000000 0.000000 -3.281746 2.334625 13.678783 20.095112 -4.619356 -0.196202 56.854020 8.046613 8.058677 -2.859003 36.526438 -4.867365 0.000000 0.000000 0.000000 
-52.576317 82.311287 -85.039642 179.525293 69.724647 179.226186 -5.204942 4.132434 12.487737 -0.860353 17.636481 -31.602684 12.567741 7.603720 27.083986 -7.957000 -7.310434 -6.260918 0.000000 0.000000 0.000000 -0.770040 3.036283 13.069261 -4.742707 -19.974577 -24.278987 -2.619505 3.542429 29.094308 10.836694 3.506284 -1.049428 0.000000 0.000000 0.000000 0.564777 7.413880 -0.542374 -0.937295 -4.743428 -10.213548 0.036566 -2.258251 14.931958 0.012476 -0.009736 -0.083705 -0.150695 -0.340406 18.039137 2.409028 -6.892645 -0.683223 0.000000 0.000000 0.000000 1.652794 0.277197 14.383335 -10.445974 -10.736544 6.713828 -52.553470 -23.201295 -3.487820 10.154497 -26.784418 10.157094 0.000000 0.000000 0.000000 -3.212591 2.434458 13.775031 19.997037 -4.389840 -0.071158 56.367130 9.782302 8.726099 -2.621155 39.229793 -5.200989 0.000000 0.000000 0.000000 
-51.966988 82.299568 -83.872513 179.224874 72.512744 179.167501 -5.019710 3.777110 12.571251 -0.163100 18.782530 -31.102861 12.492052 7.333775 26.585330 -8.027881 -7.032217 -5.951654 0.000000 0.000000 0.000000 -0.623669 2.924266 12.982829 -4.972545 -18.409095 -23.925357 -1.808690 4.522109 28.616129 11.897823 5.052316 -3.796779 0.000000 0.000000 0.000000 0.527195 7.294279 -0.694914 -0.965079 -4.697222 -10.815091 0.147294 -2.213354 14.890367 0.042677 0.092135 -0.037694 -0.075859 -0.351440 17.991186 2.543922 -6.226411 -0.230118 0.000000 0.000000 0.000000 1.711744 0.283356 14.407056 -10.098453 -10.361989 6.167746 -51.745718 -23.404874 -3.736670 9.791645 -29.713358 10.495460 0.000000 0.000000 0.000000 -3.231348 2.360015 13.871121 19.725409 -3.950380 0.067962 56.268980 11.293206 9.449089 -2.561244 41.701997 -5.646988 0.000000 0.000000 0.000000 
